<mxfile host="app.diagrams.net" modified="2022-09-07T10:12:30.720Z" agent="5.0 (Macintosh; Intel Mac OS X 10_15_7) AppleWebKit/537.36 (KHTML, like Gecko) Chrome/105.0.0.0 Safari/537.36" etag="xIKS0q6ZQX4xsbMeR34Q" version="20.2.7" type="github">
  <diagram id="oP-XuYKwCHZLZq5-KsGj" name="第 1 页">
    <mxGraphModel dx="1161" dy="744" grid="1" gridSize="10" guides="1" tooltips="1" connect="1" arrows="1" fold="1" page="1" pageScale="1" pageWidth="827" pageHeight="1169" math="0" shadow="0">
      <root>
        <mxCell id="0" />
        <mxCell id="1" parent="0" />
        <mxCell id="BHWLRK0BuXOgV4QIQUpP-297" value="" style="rounded=0;whiteSpace=wrap;html=1;strokeColor=#666666;strokeWidth=1;fillColor=#f5f5f5;fontSize=16;fontColor=#333333;" parent="1" vertex="1">
          <mxGeometry x="701" y="550" width="359" height="160" as="geometry" />
        </mxCell>
        <mxCell id="BHWLRK0BuXOgV4QIQUpP-276" value="" style="rounded=0;whiteSpace=wrap;html=1;strokeColor=#666666;strokeWidth=1;fillColor=#f5f5f5;fontSize=16;fontColor=#333333;" parent="1" vertex="1">
          <mxGeometry x="701" y="1040" width="365" height="160" as="geometry" />
        </mxCell>
        <mxCell id="BHWLRK0BuXOgV4QIQUpP-277" value="" style="rounded=0;whiteSpace=wrap;html=1;strokeColor=#666666;strokeWidth=1;fillColor=#f5f5f5;fontSize=16;fontColor=#333333;" parent="1" vertex="1">
          <mxGeometry x="700" y="824.5" width="365" height="160" as="geometry" />
        </mxCell>
        <mxCell id="BHWLRK0BuXOgV4QIQUpP-204" value="" style="group" parent="1" vertex="1" connectable="0">
          <mxGeometry x="719" y="1260" width="347" height="150" as="geometry" />
        </mxCell>
        <mxCell id="BHWLRK0BuXOgV4QIQUpP-275" value="" style="rounded=0;whiteSpace=wrap;html=1;strokeColor=#666666;strokeWidth=1;fillColor=#f5f5f5;fontSize=16;fontColor=#333333;" parent="BHWLRK0BuXOgV4QIQUpP-204" vertex="1">
          <mxGeometry x="-18" y="-10" width="365" height="160" as="geometry" />
        </mxCell>
        <mxCell id="BHWLRK0BuXOgV4QIQUpP-133" value="" style="rounded=0;whiteSpace=wrap;html=1;strokeColor=#000000;fillColor=#ffffff;fontSize=16;strokeWidth=3;" parent="BHWLRK0BuXOgV4QIQUpP-204" vertex="1">
          <mxGeometry x="90" y="40" width="70" height="80" as="geometry" />
        </mxCell>
        <mxCell id="BHWLRK0BuXOgV4QIQUpP-73" value="80" style="html=1;whiteSpace=wrap;comic=1;strokeWidth=2;fontFamily=Comic Sans MS;fontStyle=1;fillColor=#cdeb8b;strokeColor=#36393d;" parent="BHWLRK0BuXOgV4QIQUpP-204" vertex="1">
          <mxGeometry x="60" y="60" width="30" height="40" as="geometry" />
        </mxCell>
        <mxCell id="BHWLRK0BuXOgV4QIQUpP-74" value="" style="html=1;whiteSpace=wrap;comic=1;strokeWidth=2;fontFamily=Comic Sans MS;fontStyle=1;fillColor=#d5e8d4;strokeColor=#82b366;" parent="BHWLRK0BuXOgV4QIQUpP-204" vertex="1">
          <mxGeometry y="60" width="60" height="40" as="geometry" />
        </mxCell>
        <mxCell id="BHWLRK0BuXOgV4QIQUpP-75" value="" style="html=1;whiteSpace=wrap;comic=1;strokeWidth=2;fontFamily=Comic Sans MS;fontStyle=1;fillColor=#f8cecc;strokeColor=#b85450;" parent="BHWLRK0BuXOgV4QIQUpP-204" vertex="1">
          <mxGeometry x="130" y="60" width="150" height="40" as="geometry" />
        </mxCell>
        <mxCell id="BHWLRK0BuXOgV4QIQUpP-76" value="" style="html=1;whiteSpace=wrap;comic=1;strokeWidth=2;fontFamily=Comic Sans MS;fontStyle=1;fillColor=#dae8fc;strokeColor=#6c8ebf;" parent="BHWLRK0BuXOgV4QIQUpP-204" vertex="1">
          <mxGeometry x="90" y="60" width="40" height="40" as="geometry" />
        </mxCell>
        <mxCell id="BHWLRK0BuXOgV4QIQUpP-77" value="120" style="html=1;whiteSpace=wrap;comic=1;strokeWidth=2;fontFamily=Comic Sans MS;fontStyle=1;fillColor=#ffe6cc;strokeColor=#d79b00;" parent="BHWLRK0BuXOgV4QIQUpP-204" vertex="1">
          <mxGeometry x="90" y="60" width="40" height="40" as="geometry" />
        </mxCell>
        <mxCell id="BHWLRK0BuXOgV4QIQUpP-116" value="SND.WND = 200" style="text;html=1;align=center;verticalAlign=middle;resizable=0;points=[];autosize=1;fontSize=16;" parent="BHWLRK0BuXOgV4QIQUpP-204" vertex="1">
          <mxGeometry x="159" y="9" width="140" height="20" as="geometry" />
        </mxCell>
        <mxCell id="BHWLRK0BuXOgV4QIQUpP-117" value="&lt;font color=&quot;#ff0000&quot;&gt;Usable = 80&lt;/font&gt;" style="text;html=1;align=center;verticalAlign=middle;resizable=0;points=[];autosize=1;fontSize=16;fillColor=#dae8fc;strokeColor=#6c8ebf;" parent="BHWLRK0BuXOgV4QIQUpP-204" vertex="1">
          <mxGeometry x="179" y="30" width="100" height="20" as="geometry" />
        </mxCell>
        <mxCell id="BHWLRK0BuXOgV4QIQUpP-134" value="" style="rounded=0;whiteSpace=wrap;html=1;strokeColor=#FF0000;fillColor=#ffffff;fontSize=16;strokeWidth=3;spacingRight=-1;" parent="BHWLRK0BuXOgV4QIQUpP-204" vertex="1">
          <mxGeometry x="130" y="50" width="30" height="60" as="geometry" />
        </mxCell>
        <mxCell id="BHWLRK0BuXOgV4QIQUpP-78" value="" style="html=1;whiteSpace=wrap;comic=1;strokeWidth=2;fontFamily=Comic Sans MS;fontStyle=1;fillColor=#dae8fc;strokeColor=#6c8ebf;" parent="BHWLRK0BuXOgV4QIQUpP-204" vertex="1">
          <mxGeometry x="130" y="60" width="30" height="40" as="geometry" />
        </mxCell>
        <mxCell id="BHWLRK0BuXOgV4QIQUpP-181" value="" style="endArrow=classic;html=1;fontSize=14;" parent="BHWLRK0BuXOgV4QIQUpP-204" edge="1">
          <mxGeometry width="50" height="50" relative="1" as="geometry">
            <mxPoint x="89" y="20" as="sourcePoint" />
            <mxPoint x="89" y="38" as="targetPoint" />
          </mxGeometry>
        </mxCell>
        <mxCell id="BHWLRK0BuXOgV4QIQUpP-182" value="SND.UNA&amp;nbsp;= 321" style="text;html=1;align=center;verticalAlign=middle;resizable=0;points=[];autosize=1;fontSize=14;" parent="BHWLRK0BuXOgV4QIQUpP-204" vertex="1">
          <mxGeometry x="40" width="120" height="20" as="geometry" />
        </mxCell>
        <mxCell id="BHWLRK0BuXOgV4QIQUpP-193" value="" style="endArrow=classic;html=1;fontSize=16;entryX=0;entryY=1;entryDx=0;entryDy=0;strokeColor=#FF0000;" parent="BHWLRK0BuXOgV4QIQUpP-204" edge="1">
          <mxGeometry width="50" height="50" relative="1" as="geometry">
            <mxPoint x="129" y="130" as="sourcePoint" />
            <mxPoint x="129" y="109.99999999999977" as="targetPoint" />
          </mxGeometry>
        </mxCell>
        <mxCell id="BHWLRK0BuXOgV4QIQUpP-240" value="" style="rounded=0;whiteSpace=wrap;html=1;strokeColor=#666666;strokeWidth=1;fillColor=#f5f5f5;fontSize=16;fontColor=#333333;" parent="1" vertex="1">
          <mxGeometry x="707" y="1905" width="362.5" height="160" as="geometry" />
        </mxCell>
        <mxCell id="BHWLRK0BuXOgV4QIQUpP-239" value="" style="rounded=0;whiteSpace=wrap;html=1;strokeColor=#666666;strokeWidth=1;fillColor=#f5f5f5;fontSize=16;fontColor=#333333;" parent="1" vertex="1">
          <mxGeometry x="80.5" y="1687" width="330" height="160" as="geometry" />
        </mxCell>
        <mxCell id="BHWLRK0BuXOgV4QIQUpP-236" value="" style="rounded=0;whiteSpace=wrap;html=1;strokeColor=#666666;strokeWidth=1;fillColor=#f5f5f5;fontSize=16;fontColor=#333333;" parent="1" vertex="1">
          <mxGeometry x="80" y="1165.5" width="330" height="154.5" as="geometry" />
        </mxCell>
        <mxCell id="KyinlGzShGAca8BI9YWs-2" value="&lt;font color=&quot;#ff00ff&quot;&gt;&lt;font style=&quot;font-size: 16px&quot;&gt;Length = 80&lt;br style=&quot;font-size: 16px&quot;&gt;&lt;/font&gt;&lt;span&gt;Seq Num = 241&lt;br&gt;&lt;/span&gt;&lt;/font&gt;&lt;font style=&quot;font-size: 16px&quot;&gt;&lt;font color=&quot;#ff00ff&quot;&gt;Ack Num = 141&lt;/font&gt;&lt;br&gt;&lt;/font&gt;" style="endArrow=classic;html=1;fillColor=#e1d5e7;strokeColor=#9673a6;fontSize=16;strokeWidth=2;" parent="1" edge="1">
          <mxGeometry width="50" height="50" relative="1" as="geometry">
            <mxPoint x="673" y="820" as="sourcePoint" />
            <mxPoint x="433" y="870" as="targetPoint" />
          </mxGeometry>
        </mxCell>
        <mxCell id="KyinlGzShGAca8BI9YWs-5" value="服务端" style="text;html=1;align=center;verticalAlign=middle;resizable=0;points=[];autosize=1;fontSize=16;fontStyle=1" parent="1" vertex="1">
          <mxGeometry x="654.5" y="490" width="60" height="20" as="geometry" />
        </mxCell>
        <mxCell id="KyinlGzShGAca8BI9YWs-6" value="客户端" style="text;html=1;align=center;verticalAlign=middle;resizable=0;points=[];autosize=1;fontSize=16;fontStyle=1" parent="1" vertex="1">
          <mxGeometry x="400" y="490" width="60" height="20" as="geometry" />
        </mxCell>
        <mxCell id="KyinlGzShGAca8BI9YWs-11" value="" style="shape=flexArrow;endArrow=classic;html=1;fillColor=#f5f5f5;strokeColor=#666666;" parent="1" edge="1">
          <mxGeometry width="50" height="50" relative="1" as="geometry">
            <mxPoint x="683" y="520" as="sourcePoint" />
            <mxPoint x="690" y="2100" as="targetPoint" />
          </mxGeometry>
        </mxCell>
        <mxCell id="KyinlGzShGAca8BI9YWs-12" value="" style="shape=flexArrow;endArrow=classic;html=1;fillColor=#f5f5f5;strokeColor=#666666;" parent="1" edge="1">
          <mxGeometry width="50" height="50" relative="1" as="geometry">
            <mxPoint x="423" y="520" as="sourcePoint" />
            <mxPoint x="423" y="2100" as="targetPoint" />
          </mxGeometry>
        </mxCell>
        <mxCell id="KyinlGzShGAca8BI9YWs-26" value="&lt;font color=&quot;#0000ff&quot; style=&quot;font-size: 16px&quot;&gt;Ack Num = 321&lt;br&gt;&lt;/font&gt;" style="endArrow=classic;html=1;gradientColor=#7ea6e0;fillColor=#dae8fc;strokeColor=#6c8ebf;fontSize=16;strokeWidth=2;" parent="1" edge="1">
          <mxGeometry x="-0.1074" y="3" width="50" height="50" relative="1" as="geometry">
            <mxPoint x="430" y="880" as="sourcePoint" />
            <mxPoint x="671" y="1220" as="targetPoint" />
            <mxPoint as="offset" />
          </mxGeometry>
        </mxCell>
        <mxCell id="KyinlGzShGAca8BI9YWs-27" value="&lt;font color=&quot;#ff00ff&quot;&gt;Length = 120&lt;br&gt;Seq Num = 321&lt;/font&gt;" style="endArrow=classic;html=1;fillColor=#e1d5e7;strokeColor=#9673a6;fontSize=16;strokeWidth=2;" parent="1" edge="1">
          <mxGeometry width="50" height="50" relative="1" as="geometry">
            <mxPoint x="670" y="1030" as="sourcePoint" />
            <mxPoint x="430" y="1140" as="targetPoint" />
          </mxGeometry>
        </mxCell>
        <mxCell id="KyinlGzShGAca8BI9YWs-28" value="&lt;span&gt;&lt;font color=&quot;#0000ff&quot;&gt;Ack Num = 441&lt;/font&gt;&lt;/span&gt;&lt;font color=&quot;#0000ff&quot; style=&quot;font-size: 16px&quot;&gt;&lt;br&gt;&lt;/font&gt;" style="endArrow=classic;html=1;gradientColor=#7ea6e0;fillColor=#dae8fc;strokeColor=#6c8ebf;fontSize=16;strokeWidth=2;" parent="1" edge="1">
          <mxGeometry width="50" height="50" relative="1" as="geometry">
            <mxPoint x="430" y="1150" as="sourcePoint" />
            <mxPoint x="670" y="1450" as="targetPoint" />
          </mxGeometry>
        </mxCell>
        <mxCell id="KyinlGzShGAca8BI9YWs-29" value="&lt;font color=&quot;#ff00ff&quot;&gt;Length = 160&lt;br&gt;Seq num = 441&lt;/font&gt;" style="endArrow=classic;html=1;fillColor=#e1d5e7;strokeColor=#FF00FF;fontSize=16;strokeWidth=2;" parent="1" edge="1">
          <mxGeometry width="50" height="50" relative="1" as="geometry">
            <mxPoint x="680" y="1660" as="sourcePoint" />
            <mxPoint x="430" y="1707" as="targetPoint" />
          </mxGeometry>
        </mxCell>
        <mxCell id="BHWLRK0BuXOgV4QIQUpP-194" value="SND.NXT&amp;nbsp;= 441" style="text;html=1;align=center;verticalAlign=middle;resizable=0;points=[];autosize=1;fontSize=14;" parent="1" vertex="1">
          <mxGeometry x="790" y="1390" width="120" height="20" as="geometry" />
        </mxCell>
        <mxCell id="BHWLRK0BuXOgV4QIQUpP-202" value="" style="group" parent="1" vertex="1" connectable="0">
          <mxGeometry x="714.5" y="1910" width="315" height="155" as="geometry" />
        </mxCell>
        <mxCell id="BHWLRK0BuXOgV4QIQUpP-142" value="" style="rounded=0;whiteSpace=wrap;html=1;strokeColor=#000000;fillColor=#ffffff;fontSize=16;strokeWidth=3;" parent="BHWLRK0BuXOgV4QIQUpP-202" vertex="1">
          <mxGeometry x="194" y="40" width="70" height="80" as="geometry" />
        </mxCell>
        <mxCell id="BHWLRK0BuXOgV4QIQUpP-143" value="" style="rounded=0;whiteSpace=wrap;html=1;strokeColor=#FF0000;fillColor=#ffffff;fontSize=16;strokeWidth=3;spacingRight=-1;" parent="BHWLRK0BuXOgV4QIQUpP-202" vertex="1">
          <mxGeometry x="194" y="50" width="70" height="60" as="geometry" />
        </mxCell>
        <mxCell id="BHWLRK0BuXOgV4QIQUpP-96" value="80" style="html=1;whiteSpace=wrap;comic=1;strokeWidth=2;fontFamily=Comic Sans MS;fontStyle=1;fillColor=#cdeb8b;strokeColor=#36393d;" parent="BHWLRK0BuXOgV4QIQUpP-202" vertex="1">
          <mxGeometry x="64" y="60" width="30" height="40" as="geometry" />
        </mxCell>
        <mxCell id="BHWLRK0BuXOgV4QIQUpP-97" value="" style="html=1;whiteSpace=wrap;comic=1;strokeWidth=2;fontFamily=Comic Sans MS;fontStyle=1;fillColor=#d5e8d4;strokeColor=#82b366;" parent="BHWLRK0BuXOgV4QIQUpP-202" vertex="1">
          <mxGeometry x="4" y="60" width="60" height="40" as="geometry" />
        </mxCell>
        <mxCell id="BHWLRK0BuXOgV4QIQUpP-98" value="" style="html=1;whiteSpace=wrap;comic=1;strokeWidth=2;fontFamily=Comic Sans MS;fontStyle=1;fillColor=#fad9d5;strokeColor=#ae4132;" parent="BHWLRK0BuXOgV4QIQUpP-202" vertex="1">
          <mxGeometry x="134" y="60" width="150" height="40" as="geometry" />
        </mxCell>
        <mxCell id="BHWLRK0BuXOgV4QIQUpP-99" value="" style="html=1;whiteSpace=wrap;comic=1;strokeWidth=2;fontFamily=Comic Sans MS;fontStyle=1;fillColor=#dae8fc;strokeColor=#6c8ebf;" parent="BHWLRK0BuXOgV4QIQUpP-202" vertex="1">
          <mxGeometry x="94" y="60" width="40" height="40" as="geometry" />
        </mxCell>
        <mxCell id="BHWLRK0BuXOgV4QIQUpP-100" value="120" style="html=1;whiteSpace=wrap;comic=1;strokeWidth=2;fontFamily=Comic Sans MS;fontStyle=1;fillColor=#cdeb8b;strokeColor=#36393d;" parent="BHWLRK0BuXOgV4QIQUpP-202" vertex="1">
          <mxGeometry x="94" y="60" width="40" height="40" as="geometry" />
        </mxCell>
        <mxCell id="BHWLRK0BuXOgV4QIQUpP-102" value="160" style="html=1;whiteSpace=wrap;comic=1;strokeWidth=2;fontFamily=Comic Sans MS;fontStyle=1;fillColor=#cdeb8b;strokeColor=#36393d;" parent="BHWLRK0BuXOgV4QIQUpP-202" vertex="1">
          <mxGeometry x="134" y="60" width="60" height="40" as="geometry" />
        </mxCell>
        <mxCell id="BHWLRK0BuXOgV4QIQUpP-105" value="" style="html=1;whiteSpace=wrap;comic=1;strokeWidth=2;fontFamily=Comic Sans MS;fontStyle=1;fillColor=#dae8fc;strokeColor=#6c8ebf;" parent="BHWLRK0BuXOgV4QIQUpP-202" vertex="1">
          <mxGeometry x="194" y="60" width="70" height="40" as="geometry" />
        </mxCell>
        <mxCell id="BHWLRK0BuXOgV4QIQUpP-123" value="SND.WND = 200&lt;br&gt;&lt;font color=&quot;#ff0000&quot;&gt;Usable = 200&lt;/font&gt;" style="text;html=1;align=center;verticalAlign=middle;resizable=0;points=[];autosize=1;fontSize=16;fillColor=#dae8fc;strokeColor=#6c8ebf;" parent="BHWLRK0BuXOgV4QIQUpP-202" vertex="1">
          <mxGeometry y="10" width="140" height="40" as="geometry" />
        </mxCell>
        <mxCell id="BHWLRK0BuXOgV4QIQUpP-191" value="" style="endArrow=classic;html=1;fontSize=14;" parent="BHWLRK0BuXOgV4QIQUpP-202" edge="1">
          <mxGeometry width="50" height="50" relative="1" as="geometry">
            <mxPoint x="192.99999999999977" y="19.999999999999773" as="sourcePoint" />
            <mxPoint x="192.99999999999977" y="38.00000000000023" as="targetPoint" />
          </mxGeometry>
        </mxCell>
        <mxCell id="BHWLRK0BuXOgV4QIQUpP-192" value="SND.UNA&amp;nbsp;= 601" style="text;html=1;align=center;verticalAlign=middle;resizable=0;points=[];autosize=1;fontSize=14;" parent="BHWLRK0BuXOgV4QIQUpP-202" vertex="1">
          <mxGeometry x="144" width="120" height="20" as="geometry" />
        </mxCell>
        <mxCell id="BHWLRK0BuXOgV4QIQUpP-199" value="" style="endArrow=classic;html=1;fontSize=16;entryX=0;entryY=1;entryDx=0;entryDy=0;strokeColor=#FF0000;" parent="BHWLRK0BuXOgV4QIQUpP-202" edge="1">
          <mxGeometry width="50" height="50" relative="1" as="geometry">
            <mxPoint x="194" y="130" as="sourcePoint" />
            <mxPoint x="194" y="110" as="targetPoint" />
          </mxGeometry>
        </mxCell>
        <mxCell id="BHWLRK0BuXOgV4QIQUpP-200" value="SND.NXT&amp;nbsp;= 601" style="text;html=1;align=center;verticalAlign=middle;resizable=0;points=[];autosize=1;fontSize=14;" parent="BHWLRK0BuXOgV4QIQUpP-202" vertex="1">
          <mxGeometry x="139" y="130" width="120" height="20" as="geometry" />
        </mxCell>
        <mxCell id="BHWLRK0BuXOgV4QIQUpP-203" value="" style="group" parent="1" vertex="1" connectable="0">
          <mxGeometry x="721" y="1470" width="347.5" height="161" as="geometry" />
        </mxCell>
        <mxCell id="BHWLRK0BuXOgV4QIQUpP-242" value="" style="rounded=0;whiteSpace=wrap;html=1;strokeColor=#666666;strokeWidth=1;fillColor=#f5f5f5;fontSize=16;fontColor=#333333;" parent="BHWLRK0BuXOgV4QIQUpP-203" vertex="1">
          <mxGeometry x="-17.5" width="365" height="160" as="geometry" />
        </mxCell>
        <mxCell id="BHWLRK0BuXOgV4QIQUpP-139" value="" style="rounded=0;whiteSpace=wrap;html=1;strokeColor=#000000;fillColor=#ffffff;fontSize=16;strokeWidth=3;" parent="BHWLRK0BuXOgV4QIQUpP-203" vertex="1">
          <mxGeometry x="130" y="41" width="70" height="80" as="geometry" />
        </mxCell>
        <mxCell id="BHWLRK0BuXOgV4QIQUpP-137" value="" style="rounded=0;whiteSpace=wrap;html=1;strokeColor=#FF0000;fillColor=#ffffff;fontSize=16;strokeWidth=3;spacingRight=-1;" parent="BHWLRK0BuXOgV4QIQUpP-203" vertex="1">
          <mxGeometry x="130" y="51" width="70" height="60" as="geometry" />
        </mxCell>
        <mxCell id="BHWLRK0BuXOgV4QIQUpP-79" value="80" style="html=1;whiteSpace=wrap;comic=1;strokeWidth=2;fontFamily=Comic Sans MS;fontStyle=1;fillColor=#cdeb8b;strokeColor=#36393d;" parent="BHWLRK0BuXOgV4QIQUpP-203" vertex="1">
          <mxGeometry x="60" y="61" width="30" height="40" as="geometry" />
        </mxCell>
        <mxCell id="BHWLRK0BuXOgV4QIQUpP-80" value="" style="html=1;whiteSpace=wrap;comic=1;strokeWidth=2;fontFamily=Comic Sans MS;fontStyle=1;fillColor=#d5e8d4;strokeColor=#82b366;" parent="BHWLRK0BuXOgV4QIQUpP-203" vertex="1">
          <mxGeometry y="61" width="60" height="40" as="geometry" />
        </mxCell>
        <mxCell id="BHWLRK0BuXOgV4QIQUpP-81" value="" style="html=1;whiteSpace=wrap;comic=1;strokeWidth=2;fontFamily=Comic Sans MS;fontStyle=1;fillColor=#fad9d5;strokeColor=#ae4132;" parent="BHWLRK0BuXOgV4QIQUpP-203" vertex="1">
          <mxGeometry x="130" y="61" width="150" height="40" as="geometry" />
        </mxCell>
        <mxCell id="BHWLRK0BuXOgV4QIQUpP-82" value="" style="html=1;whiteSpace=wrap;comic=1;strokeWidth=2;fontFamily=Comic Sans MS;fontStyle=1;fillColor=#dae8fc;strokeColor=#6c8ebf;" parent="BHWLRK0BuXOgV4QIQUpP-203" vertex="1">
          <mxGeometry x="90" y="61" width="40" height="40" as="geometry" />
        </mxCell>
        <mxCell id="BHWLRK0BuXOgV4QIQUpP-83" value="120" style="html=1;whiteSpace=wrap;comic=1;strokeWidth=2;fontFamily=Comic Sans MS;fontStyle=1;fillColor=#cdeb8b;strokeColor=#36393d;" parent="BHWLRK0BuXOgV4QIQUpP-203" vertex="1">
          <mxGeometry x="90" y="61" width="40" height="40" as="geometry" />
        </mxCell>
        <mxCell id="BHWLRK0BuXOgV4QIQUpP-85" value="" style="html=1;whiteSpace=wrap;comic=1;strokeWidth=2;fontFamily=Comic Sans MS;fontStyle=1;fillColor=#dae8fc;strokeColor=#6c8ebf;" parent="BHWLRK0BuXOgV4QIQUpP-203" vertex="1">
          <mxGeometry x="130" y="61" width="70" height="40" as="geometry" />
        </mxCell>
        <mxCell id="BHWLRK0BuXOgV4QIQUpP-118" value="SND.WND = 200" style="text;html=1;align=center;verticalAlign=middle;resizable=0;points=[];autosize=1;fontSize=16;" parent="BHWLRK0BuXOgV4QIQUpP-203" vertex="1">
          <mxGeometry x="205" y="11" width="140" height="20" as="geometry" />
        </mxCell>
        <mxCell id="BHWLRK0BuXOgV4QIQUpP-119" value="&lt;font color=&quot;#ff0000&quot;&gt;Usable = 200&lt;/font&gt;" style="text;html=1;align=center;verticalAlign=middle;resizable=0;points=[];autosize=1;fontSize=16;fillColor=#dae8fc;strokeColor=#6c8ebf;" parent="BHWLRK0BuXOgV4QIQUpP-203" vertex="1">
          <mxGeometry x="220" y="31" width="110" height="20" as="geometry" />
        </mxCell>
        <mxCell id="BHWLRK0BuXOgV4QIQUpP-185" value="" style="endArrow=classic;html=1;fontSize=14;" parent="BHWLRK0BuXOgV4QIQUpP-203" edge="1">
          <mxGeometry width="50" height="50" relative="1" as="geometry">
            <mxPoint x="128.99999999999977" y="19.999999999999773" as="sourcePoint" />
            <mxPoint x="128.99999999999977" y="38.00000000000023" as="targetPoint" />
          </mxGeometry>
        </mxCell>
        <mxCell id="BHWLRK0BuXOgV4QIQUpP-186" value="SND.UNA&amp;nbsp;= 441" style="text;html=1;align=center;verticalAlign=middle;resizable=0;points=[];autosize=1;fontSize=14;" parent="BHWLRK0BuXOgV4QIQUpP-203" vertex="1">
          <mxGeometry x="80" width="120" height="20" as="geometry" />
        </mxCell>
        <mxCell id="BHWLRK0BuXOgV4QIQUpP-195" value="" style="endArrow=classic;html=1;fontSize=16;entryX=0;entryY=1;entryDx=0;entryDy=0;strokeColor=#FF0000;" parent="BHWLRK0BuXOgV4QIQUpP-203" edge="1">
          <mxGeometry width="50" height="50" relative="1" as="geometry">
            <mxPoint x="128.99999999999977" y="140.99999999999977" as="sourcePoint" />
            <mxPoint x="128.99999999999977" y="120.99999999999977" as="targetPoint" />
          </mxGeometry>
        </mxCell>
        <mxCell id="BHWLRK0BuXOgV4QIQUpP-196" value="SND.NXT&amp;nbsp;= 441" style="text;html=1;align=center;verticalAlign=middle;resizable=0;points=[];autosize=1;fontSize=14;" parent="BHWLRK0BuXOgV4QIQUpP-203" vertex="1">
          <mxGeometry x="74" y="141" width="120" height="20" as="geometry" />
        </mxCell>
        <mxCell id="BHWLRK0BuXOgV4QIQUpP-205" value="" style="group" parent="1" vertex="1" connectable="0">
          <mxGeometry x="721" y="1050" width="355" height="150" as="geometry" />
        </mxCell>
        <mxCell id="BHWLRK0BuXOgV4QIQUpP-132" value="" style="rounded=0;whiteSpace=wrap;html=1;strokeColor=#000000;fillColor=#ffffff;fontSize=16;strokeWidth=3;" parent="BHWLRK0BuXOgV4QIQUpP-205" vertex="1">
          <mxGeometry x="60" y="40" width="70" height="60" as="geometry" />
        </mxCell>
        <mxCell id="BHWLRK0BuXOgV4QIQUpP-68" value="80" style="html=1;whiteSpace=wrap;comic=1;strokeWidth=2;fontFamily=Comic Sans MS;fontStyle=1;fillColor=#ffe6cc;strokeColor=#d79b00;" parent="BHWLRK0BuXOgV4QIQUpP-205" vertex="1">
          <mxGeometry x="60" y="50" width="30" height="40" as="geometry" />
        </mxCell>
        <mxCell id="BHWLRK0BuXOgV4QIQUpP-69" value="" style="html=1;whiteSpace=wrap;comic=1;strokeWidth=2;fontFamily=Comic Sans MS;fontStyle=1;fillColor=#d5e8d4;strokeColor=#82b366;" parent="BHWLRK0BuXOgV4QIQUpP-205" vertex="1">
          <mxGeometry y="50" width="60" height="40" as="geometry" />
        </mxCell>
        <mxCell id="BHWLRK0BuXOgV4QIQUpP-70" value="" style="html=1;whiteSpace=wrap;comic=1;strokeWidth=2;fontFamily=Comic Sans MS;fontStyle=1;fillColor=#f8cecc;strokeColor=#b85450;" parent="BHWLRK0BuXOgV4QIQUpP-205" vertex="1">
          <mxGeometry x="130" y="50" width="150" height="40" as="geometry" />
        </mxCell>
        <mxCell id="BHWLRK0BuXOgV4QIQUpP-71" value="" style="html=1;whiteSpace=wrap;comic=1;strokeWidth=2;fontFamily=Comic Sans MS;fontStyle=1;fillColor=#dae8fc;strokeColor=#6c8ebf;" parent="BHWLRK0BuXOgV4QIQUpP-205" vertex="1">
          <mxGeometry x="90" y="50" width="40" height="40" as="geometry" />
        </mxCell>
        <mxCell id="BHWLRK0BuXOgV4QIQUpP-72" value="120" style="html=1;whiteSpace=wrap;comic=1;strokeWidth=2;fontFamily=Comic Sans MS;fontStyle=1;fillColor=#ffe6cc;strokeColor=#d79b00;" parent="BHWLRK0BuXOgV4QIQUpP-205" vertex="1">
          <mxGeometry x="90" y="50" width="40" height="40" as="geometry" />
        </mxCell>
        <mxCell id="BHWLRK0BuXOgV4QIQUpP-114" value="SND.WND = 200" style="text;html=1;align=center;verticalAlign=middle;resizable=0;points=[];autosize=1;fontSize=16;" parent="BHWLRK0BuXOgV4QIQUpP-205" vertex="1">
          <mxGeometry x="164" width="140" height="20" as="geometry" />
        </mxCell>
        <mxCell id="BHWLRK0BuXOgV4QIQUpP-115" value="&lt;font color=&quot;#ff0000&quot;&gt;Usable = 0&lt;/font&gt;" style="text;html=1;align=center;verticalAlign=middle;resizable=0;points=[];autosize=1;fontSize=16;fillColor=#dae8fc;strokeColor=#6c8ebf;" parent="BHWLRK0BuXOgV4QIQUpP-205" vertex="1">
          <mxGeometry x="189" y="20" width="90" height="20" as="geometry" />
        </mxCell>
        <mxCell id="BHWLRK0BuXOgV4QIQUpP-175" value="" style="endArrow=classic;html=1;fontSize=16;entryX=0;entryY=1;entryDx=0;entryDy=0;strokeColor=#000000;" parent="BHWLRK0BuXOgV4QIQUpP-205" edge="1">
          <mxGeometry width="50" height="50" relative="1" as="geometry">
            <mxPoint x="129.16999999999996" y="120" as="sourcePoint" />
            <mxPoint x="129.16999999999996" y="99.99999999999977" as="targetPoint" />
          </mxGeometry>
        </mxCell>
        <mxCell id="BHWLRK0BuXOgV4QIQUpP-176" value="SND.NXT&amp;nbsp;= 441" style="text;html=1;align=center;verticalAlign=middle;resizable=0;points=[];autosize=1;fontSize=14;" parent="BHWLRK0BuXOgV4QIQUpP-205" vertex="1">
          <mxGeometry x="75" y="119" width="120" height="20" as="geometry" />
        </mxCell>
        <mxCell id="BHWLRK0BuXOgV4QIQUpP-179" value="" style="endArrow=classic;html=1;fontSize=14;" parent="BHWLRK0BuXOgV4QIQUpP-205" edge="1">
          <mxGeometry width="50" height="50" relative="1" as="geometry">
            <mxPoint x="59" y="20" as="sourcePoint" />
            <mxPoint x="59" y="38" as="targetPoint" />
          </mxGeometry>
        </mxCell>
        <mxCell id="BHWLRK0BuXOgV4QIQUpP-180" value="SND.UNA&amp;nbsp;= 241" style="text;html=1;align=center;verticalAlign=middle;resizable=0;points=[];autosize=1;fontSize=14;" parent="BHWLRK0BuXOgV4QIQUpP-205" vertex="1">
          <mxGeometry x="10" width="120" height="20" as="geometry" />
        </mxCell>
        <mxCell id="BHWLRK0BuXOgV4QIQUpP-206" value="" style="group" parent="1" vertex="1" connectable="0">
          <mxGeometry x="720" y="830" width="355" height="154.5" as="geometry" />
        </mxCell>
        <mxCell id="BHWLRK0BuXOgV4QIQUpP-130" value="" style="rounded=0;whiteSpace=wrap;html=1;strokeColor=#000000;fillColor=#ffffff;fontSize=16;strokeWidth=3;" parent="BHWLRK0BuXOgV4QIQUpP-206" vertex="1">
          <mxGeometry x="60" y="39" width="70" height="80" as="geometry" />
        </mxCell>
        <mxCell id="BHWLRK0BuXOgV4QIQUpP-131" value="" style="rounded=0;whiteSpace=wrap;html=1;strokeColor=#FF0000;fillColor=#ffffff;fontSize=16;strokeWidth=3;spacingRight=-1;" parent="BHWLRK0BuXOgV4QIQUpP-206" vertex="1">
          <mxGeometry x="85" y="49" width="44" height="60" as="geometry" />
        </mxCell>
        <mxCell id="BHWLRK0BuXOgV4QIQUpP-64" value="80" style="html=1;whiteSpace=wrap;comic=1;strokeWidth=2;fontFamily=Comic Sans MS;fontStyle=1;fillColor=#ffe6cc;strokeColor=#d79b00;" parent="BHWLRK0BuXOgV4QIQUpP-206" vertex="1">
          <mxGeometry x="60" y="59" width="30" height="40" as="geometry" />
        </mxCell>
        <mxCell id="BHWLRK0BuXOgV4QIQUpP-65" value="" style="html=1;whiteSpace=wrap;comic=1;strokeWidth=2;fontFamily=Comic Sans MS;fontStyle=1;fillColor=#d5e8d4;strokeColor=#82b366;" parent="BHWLRK0BuXOgV4QIQUpP-206" vertex="1">
          <mxGeometry y="59" width="60" height="40" as="geometry" />
        </mxCell>
        <mxCell id="BHWLRK0BuXOgV4QIQUpP-66" value="" style="html=1;whiteSpace=wrap;comic=1;strokeWidth=2;fontFamily=Comic Sans MS;fontStyle=1;fillColor=#f8cecc;strokeColor=#b85450;" parent="BHWLRK0BuXOgV4QIQUpP-206" vertex="1">
          <mxGeometry x="130" y="59" width="150" height="40" as="geometry" />
        </mxCell>
        <mxCell id="BHWLRK0BuXOgV4QIQUpP-67" value="" style="html=1;whiteSpace=wrap;comic=1;strokeWidth=2;fontFamily=Comic Sans MS;fontStyle=1;fillColor=#dae8fc;strokeColor=#6c8ebf;" parent="BHWLRK0BuXOgV4QIQUpP-206" vertex="1">
          <mxGeometry x="90" y="59" width="40" height="40" as="geometry" />
        </mxCell>
        <mxCell id="BHWLRK0BuXOgV4QIQUpP-112" value="&lt;font color=&quot;#ff0000&quot;&gt;Usable = 120&lt;/font&gt;" style="text;html=1;align=center;verticalAlign=middle;resizable=0;points=[];autosize=1;fontSize=16;fillColor=#dae8fc;strokeColor=#6c8ebf;" parent="BHWLRK0BuXOgV4QIQUpP-206" vertex="1">
          <mxGeometry x="170" y="29" width="110" height="20" as="geometry" />
        </mxCell>
        <mxCell id="BHWLRK0BuXOgV4QIQUpP-113" value="SND.WND = 200" style="text;html=1;align=center;verticalAlign=middle;resizable=0;points=[];autosize=1;fontSize=16;" parent="BHWLRK0BuXOgV4QIQUpP-206" vertex="1">
          <mxGeometry x="155" y="9" width="140" height="20" as="geometry" />
        </mxCell>
        <mxCell id="BHWLRK0BuXOgV4QIQUpP-170" value="" style="endArrow=classic;html=1;fontSize=16;entryX=0;entryY=1;entryDx=0;entryDy=0;strokeColor=#FF0000;" parent="BHWLRK0BuXOgV4QIQUpP-206" target="BHWLRK0BuXOgV4QIQUpP-131" edge="1">
          <mxGeometry width="50" height="50" relative="1" as="geometry">
            <mxPoint x="85" y="129" as="sourcePoint" />
            <mxPoint x="87" y="119" as="targetPoint" />
          </mxGeometry>
        </mxCell>
        <mxCell id="BHWLRK0BuXOgV4QIQUpP-171" value="SND.NXT&amp;nbsp;= 321" style="text;html=1;align=center;verticalAlign=middle;resizable=0;points=[];autosize=1;fontSize=14;" parent="BHWLRK0BuXOgV4QIQUpP-206" vertex="1">
          <mxGeometry x="30" y="129" width="120" height="20" as="geometry" />
        </mxCell>
        <mxCell id="BHWLRK0BuXOgV4QIQUpP-177" value="" style="endArrow=classic;html=1;fontSize=14;" parent="BHWLRK0BuXOgV4QIQUpP-206" edge="1">
          <mxGeometry width="50" height="50" relative="1" as="geometry">
            <mxPoint x="58" y="20" as="sourcePoint" />
            <mxPoint x="58" y="38" as="targetPoint" />
          </mxGeometry>
        </mxCell>
        <mxCell id="BHWLRK0BuXOgV4QIQUpP-178" value="SND.UNA&amp;nbsp;= 241" style="text;html=1;align=center;verticalAlign=middle;resizable=0;points=[];autosize=1;fontSize=14;" parent="BHWLRK0BuXOgV4QIQUpP-206" vertex="1">
          <mxGeometry x="9" width="120" height="20" as="geometry" />
        </mxCell>
        <mxCell id="BHWLRK0BuXOgV4QIQUpP-207" value="" style="group" parent="1" vertex="1" connectable="0">
          <mxGeometry x="720" y="550" width="350" height="160" as="geometry" />
        </mxCell>
        <mxCell id="BHWLRK0BuXOgV4QIQUpP-148" value="" style="rounded=0;whiteSpace=wrap;html=1;strokeColor=#000000;fillColor=#ffffff;fontSize=16;strokeWidth=3;" parent="BHWLRK0BuXOgV4QIQUpP-207" vertex="1">
          <mxGeometry x="60" y="40" width="70" height="80" as="geometry" />
        </mxCell>
        <mxCell id="BHWLRK0BuXOgV4QIQUpP-149" value="" style="rounded=0;whiteSpace=wrap;html=1;strokeColor=#FF0000;fillColor=#ffffff;fontSize=16;strokeWidth=3;spacingRight=-1;" parent="BHWLRK0BuXOgV4QIQUpP-207" vertex="1">
          <mxGeometry x="60" y="50" width="70" height="60" as="geometry" />
        </mxCell>
        <mxCell id="BHWLRK0BuXOgV4QIQUpP-61" value="" style="html=1;whiteSpace=wrap;comic=1;strokeWidth=2;fontFamily=Comic Sans MS;fontStyle=1;fillColor=#d5e8d4;strokeColor=#82b366;" parent="BHWLRK0BuXOgV4QIQUpP-207" vertex="1">
          <mxGeometry y="60" width="60" height="40" as="geometry" />
        </mxCell>
        <mxCell id="BHWLRK0BuXOgV4QIQUpP-62" value="" style="html=1;whiteSpace=wrap;comic=1;strokeWidth=2;fontFamily=Comic Sans MS;fontStyle=1;fillColor=#f8cecc;strokeColor=#b85450;" parent="BHWLRK0BuXOgV4QIQUpP-207" vertex="1">
          <mxGeometry x="130" y="60" width="150" height="40" as="geometry" />
        </mxCell>
        <mxCell id="BHWLRK0BuXOgV4QIQUpP-63" value="" style="html=1;whiteSpace=wrap;comic=1;strokeWidth=2;fontFamily=Comic Sans MS;fontStyle=1;fillColor=#dae8fc;strokeColor=#6c8ebf;" parent="BHWLRK0BuXOgV4QIQUpP-207" vertex="1">
          <mxGeometry x="60" y="60" width="70" height="40" as="geometry" />
        </mxCell>
        <mxCell id="BHWLRK0BuXOgV4QIQUpP-111" value="SND.WND = 200&lt;br&gt;&lt;font color=&quot;#ff0000&quot;&gt;Usable = 200&lt;/font&gt;" style="text;html=1;align=center;verticalAlign=middle;resizable=0;points=[];autosize=1;fontSize=16;fillColor=#dae8fc;strokeColor=#6c8ebf;" parent="BHWLRK0BuXOgV4QIQUpP-207" vertex="1">
          <mxGeometry x="140" y="10" width="140" height="40" as="geometry" />
        </mxCell>
        <mxCell id="BHWLRK0BuXOgV4QIQUpP-164" value="" style="endArrow=classic;html=1;fontSize=16;strokeColor=#FF0000;" parent="BHWLRK0BuXOgV4QIQUpP-207" edge="1">
          <mxGeometry width="50" height="50" relative="1" as="geometry">
            <mxPoint x="60" y="140" as="sourcePoint" />
            <mxPoint x="60.000000000000114" y="120" as="targetPoint" />
          </mxGeometry>
        </mxCell>
        <mxCell id="BHWLRK0BuXOgV4QIQUpP-167" value="SND.NXT = 241" style="text;html=1;align=center;verticalAlign=middle;resizable=0;points=[];autosize=1;fontSize=14;" parent="BHWLRK0BuXOgV4QIQUpP-207" vertex="1">
          <mxGeometry x="11" y="140" width="120" height="20" as="geometry" />
        </mxCell>
        <mxCell id="BHWLRK0BuXOgV4QIQUpP-168" value="" style="endArrow=classic;html=1;fontSize=14;" parent="BHWLRK0BuXOgV4QIQUpP-207" edge="1">
          <mxGeometry width="50" height="50" relative="1" as="geometry">
            <mxPoint x="60" y="20" as="sourcePoint" />
            <mxPoint x="60" y="38" as="targetPoint" />
          </mxGeometry>
        </mxCell>
        <mxCell id="BHWLRK0BuXOgV4QIQUpP-169" value="SND.UNA&amp;nbsp;= 241" style="text;html=1;align=center;verticalAlign=middle;resizable=0;points=[];autosize=1;fontSize=14;" parent="BHWLRK0BuXOgV4QIQUpP-207" vertex="1">
          <mxGeometry x="11" width="120" height="20" as="geometry" />
        </mxCell>
        <mxCell id="BHWLRK0BuXOgV4QIQUpP-208" value="" style="group" parent="1" vertex="1" connectable="0">
          <mxGeometry x="120" y="555" width="294" height="155" as="geometry" />
        </mxCell>
        <mxCell id="BHWLRK0BuXOgV4QIQUpP-234" value="" style="rounded=0;whiteSpace=wrap;html=1;strokeColor=#666666;strokeWidth=1;fillColor=#f5f5f5;fontSize=16;fontColor=#333333;" parent="BHWLRK0BuXOgV4QIQUpP-208" vertex="1">
          <mxGeometry x="-42" y="-5" width="330" height="160" as="geometry" />
        </mxCell>
        <mxCell id="BHWLRK0BuXOgV4QIQUpP-147" value="" style="rounded=0;whiteSpace=wrap;html=1;strokeColor=#000000;fillColor=#ffffff;fontSize=16;strokeWidth=3;" parent="BHWLRK0BuXOgV4QIQUpP-208" vertex="1">
          <mxGeometry x="54" y="45" width="70" height="60" as="geometry" />
        </mxCell>
        <mxCell id="BHWLRK0BuXOgV4QIQUpP-1" value="" style="html=1;whiteSpace=wrap;comic=1;strokeWidth=2;fontFamily=Comic Sans MS;fontStyle=1;fillColor=#d5e8d4;strokeColor=#82b366;" parent="BHWLRK0BuXOgV4QIQUpP-208" vertex="1">
          <mxGeometry x="-6" y="55" width="60" height="40" as="geometry" />
        </mxCell>
        <mxCell id="BHWLRK0BuXOgV4QIQUpP-2" value="" style="html=1;whiteSpace=wrap;comic=1;strokeWidth=2;fontFamily=Comic Sans MS;fontStyle=1;fillColor=#fad9d5;strokeColor=#ae4132;" parent="BHWLRK0BuXOgV4QIQUpP-208" vertex="1">
          <mxGeometry x="124" y="55" width="150" height="40" as="geometry" />
        </mxCell>
        <mxCell id="BHWLRK0BuXOgV4QIQUpP-47" value="" style="html=1;whiteSpace=wrap;comic=1;strokeWidth=2;fontFamily=Comic Sans MS;fontStyle=1;fillColor=#dae8fc;strokeColor=#6c8ebf;" parent="BHWLRK0BuXOgV4QIQUpP-208" vertex="1">
          <mxGeometry x="54" y="55" width="70" height="40" as="geometry" />
        </mxCell>
        <mxCell id="BHWLRK0BuXOgV4QIQUpP-107" value="RCV.WND = 200" style="text;html=1;align=center;verticalAlign=middle;resizable=0;points=[];autosize=1;fontSize=16;fillColor=#dae8fc;strokeColor=#6c8ebf;" parent="BHWLRK0BuXOgV4QIQUpP-208" vertex="1">
          <mxGeometry x="-6" y="15" width="140" height="20" as="geometry" />
        </mxCell>
        <mxCell id="BHWLRK0BuXOgV4QIQUpP-162" value="" style="endArrow=classic;html=1;fontSize=16;" parent="BHWLRK0BuXOgV4QIQUpP-208" edge="1">
          <mxGeometry width="50" height="50" relative="1" as="geometry">
            <mxPoint x="53" y="125" as="sourcePoint" />
            <mxPoint x="53.17000000000007" y="105" as="targetPoint" />
          </mxGeometry>
        </mxCell>
        <mxCell id="BHWLRK0BuXOgV4QIQUpP-163" value="RCV.NXT = 241" style="text;html=1;align=center;verticalAlign=middle;resizable=0;points=[];autosize=1;fontSize=14;" parent="BHWLRK0BuXOgV4QIQUpP-208" vertex="1">
          <mxGeometry x="14" y="125" width="110" height="20" as="geometry" />
        </mxCell>
        <mxCell id="BHWLRK0BuXOgV4QIQUpP-211" value="" style="group" parent="1" vertex="1" connectable="0">
          <mxGeometry x="112.5" y="1702" width="294" height="145" as="geometry" />
        </mxCell>
        <mxCell id="BHWLRK0BuXOgV4QIQUpP-144" value="" style="rounded=0;whiteSpace=wrap;html=1;strokeColor=#000000;fillColor=#ffffff;fontSize=16;strokeWidth=3;" parent="BHWLRK0BuXOgV4QIQUpP-211" vertex="1">
          <mxGeometry x="190" y="30" width="70" height="60" as="geometry" />
        </mxCell>
        <mxCell id="BHWLRK0BuXOgV4QIQUpP-55" value="120" style="html=1;whiteSpace=wrap;comic=1;strokeWidth=2;fontFamily=Comic Sans MS;fontStyle=1;fillColor=#cdeb8b;strokeColor=#36393d;" parent="BHWLRK0BuXOgV4QIQUpP-211" vertex="1">
          <mxGeometry x="90" y="40" width="40" height="40" as="geometry" />
        </mxCell>
        <mxCell id="BHWLRK0BuXOgV4QIQUpP-56" value="80" style="html=1;whiteSpace=wrap;comic=1;strokeWidth=2;fontFamily=Comic Sans MS;fontStyle=1;fillColor=#cdeb8b;strokeColor=#36393d;" parent="BHWLRK0BuXOgV4QIQUpP-211" vertex="1">
          <mxGeometry x="60" y="40" width="30" height="40" as="geometry" />
        </mxCell>
        <mxCell id="BHWLRK0BuXOgV4QIQUpP-57" value="" style="html=1;whiteSpace=wrap;comic=1;strokeWidth=2;fontFamily=Comic Sans MS;fontStyle=1;fillColor=#d5e8d4;strokeColor=#82b366;" parent="BHWLRK0BuXOgV4QIQUpP-211" vertex="1">
          <mxGeometry y="40" width="60" height="40" as="geometry" />
        </mxCell>
        <mxCell id="BHWLRK0BuXOgV4QIQUpP-58" value="" style="html=1;whiteSpace=wrap;comic=1;strokeWidth=2;fontFamily=Comic Sans MS;fontStyle=1;fillColor=#fad9d5;strokeColor=#ae4132;" parent="BHWLRK0BuXOgV4QIQUpP-211" vertex="1">
          <mxGeometry x="260" y="40" width="20" height="40" as="geometry" />
        </mxCell>
        <mxCell id="BHWLRK0BuXOgV4QIQUpP-59" value="" style="html=1;whiteSpace=wrap;comic=1;strokeWidth=2;fontFamily=Comic Sans MS;fontStyle=1;fillColor=#dae8fc;strokeColor=#6c8ebf;" parent="BHWLRK0BuXOgV4QIQUpP-211" vertex="1">
          <mxGeometry x="190" y="40" width="70" height="40" as="geometry" />
        </mxCell>
        <mxCell id="BHWLRK0BuXOgV4QIQUpP-60" value="160" style="html=1;whiteSpace=wrap;comic=1;strokeWidth=2;fontFamily=Comic Sans MS;fontStyle=1;fillColor=#cdeb8b;strokeColor=#36393d;" parent="BHWLRK0BuXOgV4QIQUpP-211" vertex="1">
          <mxGeometry x="130" y="40" width="60" height="40" as="geometry" />
        </mxCell>
        <mxCell id="BHWLRK0BuXOgV4QIQUpP-110" value="RCV.WND = 200" style="text;html=1;align=center;verticalAlign=middle;resizable=0;points=[];autosize=1;fontSize=16;fillColor=#dae8fc;strokeColor=#6c8ebf;" parent="BHWLRK0BuXOgV4QIQUpP-211" vertex="1">
          <mxGeometry width="140" height="20" as="geometry" />
        </mxCell>
        <mxCell id="BHWLRK0BuXOgV4QIQUpP-152" value="" style="endArrow=classic;html=1;fontSize=16;" parent="BHWLRK0BuXOgV4QIQUpP-211" edge="1">
          <mxGeometry width="50" height="50" relative="1" as="geometry">
            <mxPoint x="189" y="110" as="sourcePoint" />
            <mxPoint x="189.16999999999996" y="90" as="targetPoint" />
          </mxGeometry>
        </mxCell>
        <mxCell id="BHWLRK0BuXOgV4QIQUpP-153" value="RCV.NXT = 601" style="text;html=1;align=center;verticalAlign=middle;resizable=0;points=[];autosize=1;fontSize=14;" parent="BHWLRK0BuXOgV4QIQUpP-211" vertex="1">
          <mxGeometry x="150" y="110" width="110" height="20" as="geometry" />
        </mxCell>
        <mxCell id="BHWLRK0BuXOgV4QIQUpP-212" value="&lt;font color=&quot;#0000ff&quot; style=&quot;font-size: 16px&quot;&gt;Length 140&lt;br&gt;Seq num = 1&lt;br&gt;&lt;/font&gt;" style="endArrow=classic;html=1;gradientColor=#7ea6e0;fillColor=#dae8fc;strokeColor=#6c8ebf;fontSize=16;strokeWidth=2;" parent="1" edge="1">
          <mxGeometry width="50" height="50" relative="1" as="geometry">
            <mxPoint x="430" y="740" as="sourcePoint" />
            <mxPoint x="671" y="810" as="targetPoint" />
          </mxGeometry>
        </mxCell>
        <mxCell id="BHWLRK0BuXOgV4QIQUpP-213" value="&lt;span&gt;&lt;font color=&quot;#0000ff&quot;&gt;Ack Num = 601&lt;/font&gt;&lt;/span&gt;&lt;font color=&quot;#0000ff&quot; style=&quot;font-size: 16px&quot;&gt;&lt;br&gt;&lt;/font&gt;" style="endArrow=classic;html=1;gradientColor=#7ea6e0;fillColor=#dae8fc;strokeColor=#6c8ebf;fontSize=16;strokeWidth=2;" parent="1" edge="1">
          <mxGeometry width="50" height="50" relative="1" as="geometry">
            <mxPoint x="430" y="1711" as="sourcePoint" />
            <mxPoint x="680" y="1880" as="targetPoint" />
          </mxGeometry>
        </mxCell>
        <mxCell id="BHWLRK0BuXOgV4QIQUpP-215" value="② 收到请求，发送确认和 80 字节的数据" style="text;html=1;align=center;verticalAlign=middle;resizable=0;points=[];autosize=1;fontSize=16;fontStyle=1" parent="1" vertex="1">
          <mxGeometry x="690" y="790" width="300" height="20" as="geometry" />
        </mxCell>
        <mxCell id="BHWLRK0BuXOgV4QIQUpP-216" value="③ 收到数据后，接着发送确认报文" style="text;html=1;align=center;verticalAlign=middle;resizable=0;points=[];autosize=1;fontSize=16;fontStyle=1" parent="1" vertex="1">
          <mxGeometry x="154" y="860" width="260" height="20" as="geometry" />
        </mxCell>
        <mxCell id="BHWLRK0BuXOgV4QIQUpP-217" value="④ 继续发送 120 个字节数据" style="text;html=1;align=center;verticalAlign=middle;resizable=0;points=[];autosize=1;fontSize=16;fontStyle=1" parent="1" vertex="1">
          <mxGeometry x="695.5" y="1005" width="220" height="30" as="geometry" />
        </mxCell>
        <mxCell id="BHWLRK0BuXOgV4QIQUpP-218" value="⑤ 收到数据后，发送确认报文" style="text;html=1;align=center;verticalAlign=middle;resizable=0;points=[];autosize=1;fontSize=16;fontStyle=1" parent="1" vertex="1">
          <mxGeometry x="184" y="1130" width="230" height="20" as="geometry" />
        </mxCell>
        <mxCell id="BHWLRK0BuXOgV4QIQUpP-219" value="⑥ 收到确认报文后，窗口往右移动 80 字节" style="text;html=1;align=center;verticalAlign=middle;resizable=0;points=[];autosize=1;fontSize=16;fontStyle=1" parent="1" vertex="1">
          <mxGeometry x="690" y="1220" width="320" height="20" as="geometry" />
        </mxCell>
        <mxCell id="BHWLRK0BuXOgV4QIQUpP-220" value="⑦&amp;nbsp; 收到确认报文后，窗口往右移动 120 字节" style="text;html=1;align=center;verticalAlign=middle;resizable=0;points=[];autosize=1;fontSize=16;fontStyle=1" parent="1" vertex="1">
          <mxGeometry x="689" y="1435" width="340" height="30" as="geometry" />
        </mxCell>
        <mxCell id="BHWLRK0BuXOgV4QIQUpP-221" value="⑧ 发送 160 个字节数据" style="text;html=1;align=center;verticalAlign=middle;resizable=0;points=[];autosize=1;fontSize=16;fontStyle=1" parent="1" vertex="1">
          <mxGeometry x="694" y="1651" width="180" height="20" as="geometry" />
        </mxCell>
        <mxCell id="BHWLRK0BuXOgV4QIQUpP-222" value="⑨ 收到数据后， 发送确认报文" style="text;html=1;align=center;verticalAlign=middle;resizable=0;points=[];autosize=1;fontSize=16;fontStyle=1" parent="1" vertex="1">
          <mxGeometry x="184.5" y="1661" width="230" height="20" as="geometry" />
        </mxCell>
        <mxCell id="BHWLRK0BuXOgV4QIQUpP-224" value="⑩ 收到确认报文后，窗口往右移动 160 字节" style="text;html=1;align=center;verticalAlign=middle;resizable=0;points=[];autosize=1;fontSize=16;fontStyle=1" parent="1" vertex="1">
          <mxGeometry x="695.5" y="1870" width="330" height="20" as="geometry" />
        </mxCell>
        <mxCell id="BHWLRK0BuXOgV4QIQUpP-214" value="① 发送请求数据" style="text;html=1;align=center;verticalAlign=middle;resizable=0;points=[];autosize=1;fontSize=16;fontStyle=1" parent="1" vertex="1">
          <mxGeometry x="276.5" y="730" width="130" height="20" as="geometry" />
        </mxCell>
        <mxCell id="BHWLRK0BuXOgV4QIQUpP-231" value="" style="group" parent="1" vertex="1" connectable="0">
          <mxGeometry x="100" y="1184.5" width="295" height="161" as="geometry" />
        </mxCell>
        <mxCell id="BHWLRK0BuXOgV4QIQUpP-229" value="" style="group" parent="BHWLRK0BuXOgV4QIQUpP-231" connectable="0" vertex="1">
          <mxGeometry width="295" height="161" as="geometry" />
        </mxCell>
        <mxCell id="BHWLRK0BuXOgV4QIQUpP-145" value="" style="rounded=0;whiteSpace=wrap;html=1;strokeColor=#000000;fillColor=#ffffff;fontSize=16;strokeWidth=3;" parent="BHWLRK0BuXOgV4QIQUpP-229" vertex="1">
          <mxGeometry x="130" y="30" width="70" height="60" as="geometry" />
        </mxCell>
        <mxCell id="BHWLRK0BuXOgV4QIQUpP-45" value="120" style="html=1;whiteSpace=wrap;comic=1;strokeWidth=2;fontFamily=Comic Sans MS;fontStyle=1;fillColor=#cdeb8b;strokeColor=#36393d;" parent="BHWLRK0BuXOgV4QIQUpP-229" vertex="1">
          <mxGeometry x="90" y="40" width="40" height="40" as="geometry" />
        </mxCell>
        <mxCell id="BHWLRK0BuXOgV4QIQUpP-51" value="80" style="html=1;whiteSpace=wrap;comic=1;strokeWidth=2;fontFamily=Comic Sans MS;fontStyle=1;fillColor=#cdeb8b;strokeColor=#36393d;" parent="BHWLRK0BuXOgV4QIQUpP-229" vertex="1">
          <mxGeometry x="60" y="40" width="30" height="40" as="geometry" />
        </mxCell>
        <mxCell id="BHWLRK0BuXOgV4QIQUpP-52" value="" style="html=1;whiteSpace=wrap;comic=1;strokeWidth=2;fontFamily=Comic Sans MS;fontStyle=1;fillColor=#d5e8d4;strokeColor=#82b366;" parent="BHWLRK0BuXOgV4QIQUpP-229" vertex="1">
          <mxGeometry y="40" width="60" height="40" as="geometry" />
        </mxCell>
        <mxCell id="BHWLRK0BuXOgV4QIQUpP-53" value="" style="html=1;whiteSpace=wrap;comic=1;strokeWidth=2;fontFamily=Comic Sans MS;fontStyle=1;fillColor=#fad9d5;strokeColor=#ae4132;" parent="BHWLRK0BuXOgV4QIQUpP-229" vertex="1">
          <mxGeometry x="200" y="40" width="80" height="40" as="geometry" />
        </mxCell>
        <mxCell id="BHWLRK0BuXOgV4QIQUpP-54" value="" style="html=1;whiteSpace=wrap;comic=1;strokeWidth=2;fontFamily=Comic Sans MS;fontStyle=1;fillColor=#dae8fc;strokeColor=#6c8ebf;" parent="BHWLRK0BuXOgV4QIQUpP-229" vertex="1">
          <mxGeometry x="130" y="40" width="70" height="40" as="geometry" />
        </mxCell>
        <mxCell id="BHWLRK0BuXOgV4QIQUpP-108" value="RCV.WND = 200" style="text;html=1;align=center;verticalAlign=middle;resizable=0;points=[];autosize=1;fontSize=16;fillColor=#dae8fc;strokeColor=#6c8ebf;" parent="BHWLRK0BuXOgV4QIQUpP-229" vertex="1">
          <mxGeometry width="140" height="20" as="geometry" />
        </mxCell>
        <mxCell id="BHWLRK0BuXOgV4QIQUpP-156" value="" style="endArrow=classic;html=1;fontSize=16;" parent="BHWLRK0BuXOgV4QIQUpP-229" edge="1">
          <mxGeometry width="50" height="50" relative="1" as="geometry">
            <mxPoint x="129" y="110" as="sourcePoint" />
            <mxPoint x="129.17000000000007" y="90" as="targetPoint" />
          </mxGeometry>
        </mxCell>
        <mxCell id="BHWLRK0BuXOgV4QIQUpP-233" value="" style="group" parent="1" vertex="1" connectable="0">
          <mxGeometry x="100" y="910" width="310" height="150" as="geometry" />
        </mxCell>
        <mxCell id="BHWLRK0BuXOgV4QIQUpP-232" value="" style="rounded=0;whiteSpace=wrap;html=1;strokeColor=#666666;strokeWidth=1;fillColor=#f5f5f5;fontSize=16;fontColor=#333333;" parent="BHWLRK0BuXOgV4QIQUpP-233" vertex="1">
          <mxGeometry x="-20" y="-20" width="330" height="160" as="geometry" />
        </mxCell>
        <mxCell id="BHWLRK0BuXOgV4QIQUpP-146" value="" style="rounded=0;whiteSpace=wrap;html=1;strokeColor=#000000;fillColor=#ffffff;fontSize=16;strokeWidth=3;" parent="BHWLRK0BuXOgV4QIQUpP-233" vertex="1">
          <mxGeometry x="90" y="30" width="70" height="60" as="geometry" />
        </mxCell>
        <mxCell id="BHWLRK0BuXOgV4QIQUpP-44" value="80" style="html=1;whiteSpace=wrap;comic=1;strokeWidth=2;fontFamily=Comic Sans MS;fontStyle=1;fillColor=#cdeb8b;strokeColor=#36393d;" parent="BHWLRK0BuXOgV4QIQUpP-233" vertex="1">
          <mxGeometry x="60" y="40" width="30" height="40" as="geometry" />
        </mxCell>
        <mxCell id="BHWLRK0BuXOgV4QIQUpP-48" value="" style="html=1;whiteSpace=wrap;comic=1;strokeWidth=2;fontFamily=Comic Sans MS;fontStyle=1;fillColor=#d5e8d4;strokeColor=#82b366;" parent="BHWLRK0BuXOgV4QIQUpP-233" vertex="1">
          <mxGeometry y="40" width="60" height="40" as="geometry" />
        </mxCell>
        <mxCell id="BHWLRK0BuXOgV4QIQUpP-49" value="" style="html=1;whiteSpace=wrap;comic=1;strokeWidth=2;fontFamily=Comic Sans MS;fontStyle=1;fillColor=#fad9d5;strokeColor=#ae4132;" parent="BHWLRK0BuXOgV4QIQUpP-233" vertex="1">
          <mxGeometry x="160" y="40" width="120" height="40" as="geometry" />
        </mxCell>
        <mxCell id="BHWLRK0BuXOgV4QIQUpP-50" value="" style="html=1;whiteSpace=wrap;comic=1;strokeWidth=2;fontFamily=Comic Sans MS;fontStyle=1;fillColor=#dae8fc;strokeColor=#6c8ebf;" parent="BHWLRK0BuXOgV4QIQUpP-233" vertex="1">
          <mxGeometry x="90" y="40" width="70" height="40" as="geometry" />
        </mxCell>
        <mxCell id="BHWLRK0BuXOgV4QIQUpP-109" value="RCV.WND = 200" style="text;html=1;align=center;verticalAlign=middle;resizable=0;points=[];autosize=1;fontSize=16;fillColor=#dae8fc;strokeColor=#6c8ebf;" parent="BHWLRK0BuXOgV4QIQUpP-233" vertex="1">
          <mxGeometry width="140" height="20" as="geometry" />
        </mxCell>
        <mxCell id="BHWLRK0BuXOgV4QIQUpP-158" value="" style="endArrow=classic;html=1;fontSize=16;" parent="BHWLRK0BuXOgV4QIQUpP-233" edge="1">
          <mxGeometry width="50" height="50" relative="1" as="geometry">
            <mxPoint x="89" y="110" as="sourcePoint" />
            <mxPoint x="89.17000000000007" y="90" as="targetPoint" />
          </mxGeometry>
        </mxCell>
        <mxCell id="BHWLRK0BuXOgV4QIQUpP-159" value="RCV.NXT = 321" style="text;html=1;align=center;verticalAlign=middle;resizable=0;points=[];autosize=1;fontSize=14;" parent="BHWLRK0BuXOgV4QIQUpP-233" vertex="1">
          <mxGeometry x="50" y="110" width="110" height="20" as="geometry" />
        </mxCell>
        <mxCell id="BHWLRK0BuXOgV4QIQUpP-237" value="&lt;span style=&quot;font-size: 14px&quot;&gt;RCV.NXT = 441&lt;/span&gt;" style="text;html=1;align=center;verticalAlign=middle;resizable=0;points=[];autosize=1;fontSize=16;" parent="1" vertex="1">
          <mxGeometry x="184" y="1290" width="110" height="30" as="geometry" />
        </mxCell>
        <mxCell id="BHWLRK0BuXOgV4QIQUpP-241" value="" style="rounded=0;whiteSpace=wrap;html=1;strokeColor=#666666;strokeWidth=1;fillColor=#f5f5f5;fontSize=16;fontColor=#333333;" parent="1" vertex="1">
          <mxGeometry x="703" y="1685" width="365" height="160" as="geometry" />
        </mxCell>
        <mxCell id="BHWLRK0BuXOgV4QIQUpP-140" value="" style="rounded=0;whiteSpace=wrap;html=1;strokeColor=#000000;fillColor=#ffffff;fontSize=16;strokeWidth=3;" parent="1" vertex="1">
          <mxGeometry x="849" y="1726" width="70" height="80" as="geometry" />
        </mxCell>
        <mxCell id="BHWLRK0BuXOgV4QIQUpP-141" value="" style="rounded=0;whiteSpace=wrap;html=1;strokeColor=#FF0000;fillColor=#ffffff;fontSize=16;strokeWidth=3;spacingRight=-1;" parent="1" vertex="1">
          <mxGeometry x="909" y="1736" width="10" height="60" as="geometry" />
        </mxCell>
        <mxCell id="BHWLRK0BuXOgV4QIQUpP-89" value="80" style="html=1;whiteSpace=wrap;comic=1;strokeWidth=2;fontFamily=Comic Sans MS;fontStyle=1;fillColor=#cdeb8b;strokeColor=#36393d;" parent="1" vertex="1">
          <mxGeometry x="779" y="1746" width="30" height="40" as="geometry" />
        </mxCell>
        <mxCell id="BHWLRK0BuXOgV4QIQUpP-90" value="" style="html=1;whiteSpace=wrap;comic=1;strokeWidth=2;fontFamily=Comic Sans MS;fontStyle=1;fillColor=#d5e8d4;strokeColor=#82b366;" parent="1" vertex="1">
          <mxGeometry x="719" y="1746" width="60" height="40" as="geometry" />
        </mxCell>
        <mxCell id="BHWLRK0BuXOgV4QIQUpP-91" value="" style="html=1;whiteSpace=wrap;comic=1;strokeWidth=2;fontFamily=Comic Sans MS;fontStyle=1;fillColor=#fad9d5;strokeColor=#ae4132;" parent="1" vertex="1">
          <mxGeometry x="849" y="1746" width="150" height="40" as="geometry" />
        </mxCell>
        <mxCell id="BHWLRK0BuXOgV4QIQUpP-92" value="" style="html=1;whiteSpace=wrap;comic=1;strokeWidth=2;fontFamily=Comic Sans MS;fontStyle=1;fillColor=#dae8fc;strokeColor=#6c8ebf;" parent="1" vertex="1">
          <mxGeometry x="809" y="1746" width="40" height="40" as="geometry" />
        </mxCell>
        <mxCell id="BHWLRK0BuXOgV4QIQUpP-93" value="120" style="html=1;whiteSpace=wrap;comic=1;strokeWidth=2;fontFamily=Comic Sans MS;fontStyle=1;fillColor=#cdeb8b;strokeColor=#36393d;" parent="1" vertex="1">
          <mxGeometry x="809" y="1746" width="40" height="40" as="geometry" />
        </mxCell>
        <mxCell id="BHWLRK0BuXOgV4QIQUpP-94" value="" style="html=1;whiteSpace=wrap;comic=1;strokeWidth=2;fontFamily=Comic Sans MS;fontStyle=1;fillColor=#dae8fc;strokeColor=#6c8ebf;" parent="1" vertex="1">
          <mxGeometry x="849" y="1746" width="70" height="40" as="geometry" />
        </mxCell>
        <mxCell id="BHWLRK0BuXOgV4QIQUpP-95" value="160" style="html=1;whiteSpace=wrap;comic=1;strokeWidth=2;fontFamily=Comic Sans MS;fontStyle=1;fillColor=#ffe6cc;strokeColor=#d79b00;" parent="1" vertex="1">
          <mxGeometry x="849" y="1746" width="60" height="40" as="geometry" />
        </mxCell>
        <mxCell id="BHWLRK0BuXOgV4QIQUpP-120" value="SND.WND = 200" style="text;html=1;align=center;verticalAlign=middle;resizable=0;points=[];autosize=1;fontSize=16;" parent="1" vertex="1">
          <mxGeometry x="930" y="1696" width="140" height="20" as="geometry" />
        </mxCell>
        <mxCell id="BHWLRK0BuXOgV4QIQUpP-121" value="&lt;font color=&quot;#ff0000&quot;&gt;Usable = 40&lt;/font&gt;" style="text;html=1;align=center;verticalAlign=middle;resizable=0;points=[];autosize=1;fontSize=16;fillColor=#dae8fc;strokeColor=#6c8ebf;" parent="1" vertex="1">
          <mxGeometry x="950" y="1716" width="100" height="20" as="geometry" />
        </mxCell>
        <mxCell id="BHWLRK0BuXOgV4QIQUpP-189" value="" style="endArrow=classic;html=1;fontSize=14;" parent="1" edge="1">
          <mxGeometry width="50" height="50" relative="1" as="geometry">
            <mxPoint x="847.9999999999998" y="1706.9999999999998" as="sourcePoint" />
            <mxPoint x="847.9999999999998" y="1725.0000000000002" as="targetPoint" />
          </mxGeometry>
        </mxCell>
        <mxCell id="BHWLRK0BuXOgV4QIQUpP-190" value="SND.UNA&amp;nbsp;= 441" style="text;html=1;align=center;verticalAlign=middle;resizable=0;points=[];autosize=1;fontSize=14;" parent="1" vertex="1">
          <mxGeometry x="799" y="1687" width="120" height="20" as="geometry" />
        </mxCell>
        <mxCell id="BHWLRK0BuXOgV4QIQUpP-197" value="" style="endArrow=classic;html=1;fontSize=16;entryX=0;entryY=1;entryDx=0;entryDy=0;strokeColor=#FF0000;" parent="1" edge="1">
          <mxGeometry width="50" height="50" relative="1" as="geometry">
            <mxPoint x="908.9999999999998" y="1816" as="sourcePoint" />
            <mxPoint x="908.9999999999998" y="1795.9999999999998" as="targetPoint" />
          </mxGeometry>
        </mxCell>
        <mxCell id="BHWLRK0BuXOgV4QIQUpP-198" value="SND.NXT&amp;nbsp;= 601" style="text;html=1;align=center;verticalAlign=middle;resizable=0;points=[];autosize=1;fontSize=14;" parent="1" vertex="1">
          <mxGeometry x="854" y="1816" width="120" height="20" as="geometry" />
        </mxCell>
      </root>
    </mxGraphModel>
  </diagram>
</mxfile>
